<?xml version="1.0" standalone="no"?>
<!DOCTYPE svg PUBLIC "-//W3C//DTD SVG 20010904//EN"
 "http://www.w3.org/TR/2001/REC-SVG-20010904/DTD/svg10.dtd">
<svg version="1.0" xmlns="http://www.w3.org/2000/svg"
 width="64.000000pt" height="64.000000pt" viewBox="0 0 64.000000 64.000000"
 preserveAspectRatio="xMidYMid meet">

<g transform="translate(0.000000,64.000000) scale(0.100000,-0.100000)"
fill="#000000" stroke="none">
<path d="M235 613 c48 -10 75 -27 87 -54 9 -19 20 -29 35 -29 12 0 29 -10 37
-22 19 -27 54 -31 62 -6 14 46 60 62 92 31 9 -10 30 -24 45 -30 39 -18 36 -50
-8 -69 -34 -14 -35 -15 -35 -74 0 -46 -3 -60 -15 -60 -10 0 -15 16 -17 63 l-3
62 -73 3 c-78 3 -102 -6 -102 -40 0 -28 -33 -19 -40 12 -6 23 -10 25 -70 25
l-65 0 -3 -75 c-4 -110 -16 -118 -22 -15 l-5 90 -40 3 c-46 4 -65 17 -65 43 0
19 28 39 46 32 6 -2 17 3 24 12 7 8 22 15 34 15 13 0 28 12 38 30 18 32 8 41
-14 13 -16 -22 -74 -53 -97 -53 -21 0 -51 -30 -51 -52 0 -25 34 -48 72 -48 23
0 38 -5 42 -16 10 -26 7 -152 -4 -159 -5 -3 -10 -26 -10 -51 0 -24 -3 -44 -6
-44 -4 0 -22 9 -40 21 -19 11 -39 19 -45 17 -6 -2 12 -16 39 -31 l51 -27 -6
-53 -5 -53 48 2 48 2 -3 55 c-2 52 -1 55 18 50 17 -4 21 -1 21 17 0 13 5 20
13 18 7 -3 14 -31 17 -74 l5 -69 63 0 62 0 0 58 c0 54 2 58 20 52 14 -4 20 -2
20 9 0 8 3 21 6 30 3 9 1 16 -5 16 -6 0 -11 -9 -11 -20 0 -11 -3 -20 -7 -20
-23 1 -31 24 -37 110 -3 52 -7 109 -8 125 l-3 30 70 0 70 0 -1 -65 c-1 -91
-15 -184 -28 -192 -7 -5 -7 -8 2 -8 11 0 12 -14 6 -67 -6 -60 -5 -66 10 -60
10 4 26 7 37 7 12 0 16 5 13 15 -4 10 0 15 10 15 10 0 16 -7 14 -16 -2 -10 3
-19 10 -21 9 -3 12 12 12 57 0 59 1 61 23 55 21 -6 21 -6 3 9 -11 9 -23 16
-28 16 -4 0 -8 29 -8 64 0 36 -4 68 -10 71 -11 7 -14 84 -4 109 3 9 14 16 23
16 25 0 41 20 41 50 0 28 -16 50 -37 50 -7 0 -22 9 -33 20 -36 36 -106 18
-122 -31 -3 -10 -13 -6 -37 14 -18 15 -39 27 -46 27 -8 0 -17 9 -20 20 -8 25
-55 50 -92 49 -20 -1 -22 -3 -8 -6z m52 -209 c3 -9 1 -25 -5 -35 -7 -11 -12
-57 -12 -105 l0 -86 -25 6 c-21 5 -25 3 -25 -15 0 -38 -25 -14 -37 37 -12 54
-17 197 -6 207 3 4 28 7 55 7 36 0 50 -4 55 -16z m73 -69 c0 -22 -4 -25 -35
-25 -31 0 -35 3 -35 25 0 22 4 25 35 25 31 0 35 -3 35 -25z m0 -55 c0 -11 -4
-20 -10 -20 -5 0 -10 2 -10 4 0 2 -3 11 -6 20 -4 11 -1 16 10 16 9 0 16 -8 16
-20z m200 -15 c0 -9 -9 -15 -25 -15 -16 0 -25 6 -25 15 0 9 9 15 25 15 16 0
25 -6 25 -15z m-390 -40 c0 -8 -9 -15 -20 -15 -11 0 -20 7 -20 15 0 8 9 15 20
15 11 0 20 -7 20 -15z m200 -5 c0 -17 -7 -20 -45 -20 -38 0 -45 3 -45 20 0 17
7 20 45 20 38 0 45 -3 45 -20z m190 -1 c0 -5 -4 -9 -10 -9 -5 0 -10 7 -10 16
0 8 5 12 10 9 6 -3 10 -10 10 -16z m-400 -29 c0 -5 -4 -10 -10 -10 -5 0 -10 5
-10 10 0 6 5 10 10 10 6 0 10 -4 10 -10z m410 -15 c0 -16 -55 -22 -64 -6 -8
13 5 21 36 21 18 0 28 -5 28 -15z m-210 -16 c0 -11 -4 -17 -10 -14 -5 3 -10
13 -10 21 0 8 5 14 10 14 6 0 10 -9 10 -21z m-190 -9 c0 -5 -11 -10 -25 -10
-14 0 -25 5 -25 10 0 6 11 10 25 10 14 0 25 -4 25 -10z m390 -15 c0 -8 -4 -15
-10 -15 -5 0 -10 7 -10 15 0 8 5 15 10 15 6 0 10 -7 10 -15z m-395 -14 c3 -5
1 -12 -5 -16 -5 -3 -10 1 -10 9 0 18 6 21 15 7z m205 -10 c0 -12 -9 -21 -26
-25 -36 -9 -64 2 -64 25 0 16 7 19 45 19 37 0 45 -3 45 -19z m200 -26 c0 -10
-11 -15 -35 -15 -24 0 -35 5 -35 15 0 10 11 15 35 15 24 0 35 -5 35 -15z
m-390 -5 c0 -5 -13 -10 -30 -10 -16 0 -30 5 -30 10 0 6 14 10 30 10 17 0 30
-4 30 -10z m190 -26 c0 -17 -22 -14 -28 4 -2 7 3 12 12 12 9 0 16 -7 16 -16z"/>
</g>
</svg>
